<svg xmlns="http://www.w3.org/2000/svg" viewBox="0 0 48 48"><path style="opacity:.2" d="M16.85 12c-1.12 0-2.23.9-2.02 2l3.12 16-5.6 11.1c-.39.77-.46 1.24-.17 1.9.28.63 1 1 1.74 1h20.16c.74 0 1.46-.37 1.74-1 .3-.66.22-1.13-.18-1.9L30.04 30l3.13-16c.21-1.1-.9-2-2.02-2H24Z"/><path style="fill:#ccc" d="M16.85 11c-1.12 0-2.23.9-2.02 2l3.12 16-5.6 11.1c-.39.77-.46 1.24-.17 1.9.28.63 1 1 1.74 1h20.16c.74 0 1.46-.37 1.74-1 .3-.66.22-1.13-.18-1.9L30.04 29l3.13-16c.21-1.1-.9-2-2.02-2H24Z"/><rect style="opacity:.2" width="40" height="32" x="4" y="6" rx="2" ry="2"/><path style="fill:#e4e4e4" d="M4 33v2c0 1.1.9 2 2 2h36a2 2 0 0 0 2-2v-2H4z"/><path style="opacity:.1" d="M11.5 15a1.5 1.5 0 0 0-1.24 2.34l3.13 4.65a15.94 15.94 0 0 0-5.38 10.47C7.93 34 9.56 34 9.56 34h28.85s1.67 0 1.6-1.62a15.94 15.94 0 0 0-5.39-10.4l3.13-4.64a1.5 1.5 0 0 0-2.49-1.68l-3.07 4.57S29 18 24 18s-8.19 2.23-8.19 2.23l-3.07-4.57A1.5 1.5 0 0 0 11.5 15z"/><path style="fill:#077063" d="M6 5a2 2 0 0 0-2 2v26h40V7a2 2 0 0 0-2-2H6z"/><path style="fill:none;stroke:#30dd81;stroke-width:3;stroke-linecap:round" d="m15.2 21-3.7-5.5M32.8 21l3.7-5.5"/><path style="fill:#30dd81" d="M24 17A16.05 16.05 0 0 0 8 31.46C7.93 33 9.55 33 9.55 33H38.4s1.68 0 1.6-1.62A16.05 16.05 0 0 0 24 17z"/><circle style="opacity:.2" cx="32" cy="27" r="2"/><circle style="opacity:.2" cx="16" cy="27" r="2"/><g fill="#fff"><path style="opacity:.1" d="M6 5a2 2 0 0 0-2 2v1c0-1.1.9-2 2-2h36a2 2 0 0 1 2 2V7a2 2 0 0 0-2-2H6z"/><circle cx="32" cy="26" r="2"/><circle cx="16" cy="26" r="2"/><path style="opacity:.2" d="M11.5 14a1.47 1.47 0 0 0-1.38 2c.2-.6.73-1 1.37-1 .5 0 .97.24 1.25.66l3.08 4.57S19 18 24 18s8.18 2.23 8.18 2.23l3.08-4.57a1.5 1.5 0 0 1 2.65.34 1.5 1.5 0 0 0-2.65-1.34l-3.08 4.57S29 17 24 17s-8.18 2.23-8.18 2.23l-3.08-4.57A1.5 1.5 0 0 0 11.5 14zm23.53 7.37-.41.62c2.86 2.5 4.81 6 5.32 9.96.05-.17.07-.35.06-.57a15.92 15.92 0 0 0-4.97-10.01zm-22.06 0A15.92 15.92 0 0 0 8 31.47c0 .2.01.38.06.53a15.9 15.9 0 0 1 5.33-10l-.42-.63z"/></g></svg>