/* XPM */
static char * icon_xpm[] = {
"48 48 2 1",
" 	c None",
".	c #96C13E",
"              ..                ..              ",
"              ...              ...              ",
"               ...   ......   ...               ",
"                ................                ",
"                 ..............                 ",
"                ................                ",
"               ..................               ",
"              ....................              ",
"             .....  ........  .....             ",
"             .....  ........  .....             ",
"             ......................             ",
"            ........................            ",
"            ........................            ",
"            ........................            ",
"                                                ",
"                                                ",
"     ....   ........................   ....     ",
"    ......  ........................  ......    ",
"    ......  ........................  ......    ",
"    ......  ........................  ......    ",
"    ......  ........................  ......    ",
"    ......  ........................  ......    ",
"    ......  ........................  ......    ",
"    ......  ........................  ......    ",
"    ......  ........................  ......    ",
"    ......  ........................  ......    ",
"    ......  ........................  ......    ",
"    ......  ........................  ......    ",
"    ......  ........................  ......    ",
"    ......  ........................  ......    ",
"    ......  ........................  ......    ",
"    ......  ........................  ......    ",
"    ......  ........................  ......    ",
"    ......  ........................  ......    ",
"    ......  ........................  ......    ",
"     ....   ........................   ....     ",
"            ........................            ",
"             ......................             ",
"                ......    ......                ",
"                ......    ......                ",
"                ......    ......                ",
"                ......    ......                ",
"                ......    ......                ",
"                ......    ......                ",
"                ......    ......                ",
"                ......    ......                ",
"                ......    ......                ",
"                 ....      ....                 "};
